<svg xmlns="http://www.w3.org/2000/svg" xmlns:xlink="http://www.w3.org/1999/xlink" x="0" y="0" width="250" height="121.5" style="
        width:250px;
        height:121.5px;
        background: #FFF;
        fill: none;
">
        <svg xmlns="http://www.w3.org/2000/svg"/>
        
        <svg xmlns="http://www.w3.org/2000/svg" class="role-diagram-draw-area" style="overflow: visible;"><g class="shapes-region" style="stroke: black; fill: none;"><g class="composite-shape"><path class="real" d=" M233.5,72.27 L154.17,102.1 L154.17,42.43 Z" style="stroke-width: 1; stroke: rgb(0, 0, 0); fill: none; fill-opacity: 1;"/></g><g class="composite-shape"><g class="real" style="stroke-width: 1; stroke: rgb(0, 0, 0); fill: none; fill-opacity: 1;"><path d=" M58.25,57.35 L66.2,57.35 L67.97,51.85 L71.5,62.85 L75.03,51.85 L78.57,62.85 L82.1,51.85 L85.63,62.85 L89.17,51.85 L92.7,62.85 L94.47,57.35 L102.42,57.35" style="fill: none;"/></g></g><g class="composite-shape"><g class="real" style="stroke-width: 1; stroke: rgb(0, 0, 0); fill: none; fill-opacity: 1;"><path d=" M102.42,57.35 L108.72,57.35" style="fill: none;"/><path d=" M123.42,57.35 L117.12,57.35" style="fill: none;"/><path d=" M108.72,47.1 L108.72,67.6" style="fill: none;"/><path d=" M117.12,47.1 L117.12,67.6" style="fill: none;"/></g></g><g class="arrow-line"><path class="connection real" stroke-dasharray="" d="  M123.42,57.35 L154.5,57.1" style="stroke: rgb(0, 0, 0); stroke-width: 1; fill: none; fill-opacity: 1;"/></g><g class="grouped-shape"><g class="arrow-line"><path class="connection real" stroke-dasharray="" d="  M21.67,66.2 L44,66.2" style="stroke: rgb(0, 0, 0); stroke-width: 1; fill: none; fill-opacity: 1;"/></g><g class="arrow-line"><path class="connection real" stroke-dasharray="" d="  M26.31,69.23 L39.35,69.23" style="stroke: rgb(0, 0, 0); stroke-width: 1; fill: none; fill-opacity: 1;"/></g><g class="arrow-line"><path class="connection real" stroke-dasharray="" d="  M28.86,72.6 L36.81,72.6" style="stroke: rgb(0, 0, 0); stroke-width: 1; fill: none; fill-opacity: 1;"/></g><g class="arrow-line"><path class="connection real" stroke-dasharray="" d="  M32.83,66.2 L32.83,57.1" style="stroke: rgb(0, 0, 0); stroke-width: 1; fill: none; fill-opacity: 1;"/></g></g><g class="arrow-line"><path class="connection real" stroke-dasharray="" d="  M32.83,57.35 L58.25,57.35" style="stroke: rgb(0, 0, 0); stroke-width: 1; fill: none; fill-opacity: 1;"/></g><g class="arrow-line"><path class="connection real" stroke-dasharray="" d="  M135.83,-103.65 L135.83,57.6" style="stroke: rgb(0, 0, 0); stroke-width: 1; fill: none; fill-opacity: 1;"/></g><g class="composite-shape"><path class="real" d=" M132.36,57.23 C132.36,55.4 133.84,53.92 135.66,53.92 C137.48,53.92 138.96,55.4 138.96,57.23 C138.96,59.05 137.48,60.53 135.66,60.53 C133.84,60.53 132.36,59.05 132.36,57.23 Z" style="stroke-width: 1; stroke: none; stroke-opacity: 1; fill: rgb(255, 0, 0); fill-opacity: 1;"/></g><g class="arrow-line"><path class="connection real" stroke-dasharray="" d="  M120.2,79.9 L69.8,80.28" style="stroke: rgb(255, 0, 0); stroke-width: 1; fill: none; fill-opacity: 1; stroke-opacity: 1;"/><g stroke="rgb(255,0,0)" transform="matrix(0.9999705131786779,-0.007679373227783349,0.007679373227783349,0.9999705131786779,67.80000000000001,80.30000000000001)" style="stroke: rgb(255, 0, 0); stroke-width: 1;" stroke-opacity="1"><path d=" M10.93,-3.29 Q4.96,-0.45 0,0 Q4.96,0.45 10.93,3.29"/></g></g><g class="composite-shape"><path class="real" d=" M99.12,57.35 C99.12,55.53 100.59,54.05 102.42,54.05 C104.24,54.05 105.72,55.53 105.72,57.35 C105.72,59.17 104.24,60.65 102.42,60.65 C100.59,60.65 99.12,59.17 99.12,57.35 Z" style="stroke-width: 1; stroke: none; stroke-opacity: 1; fill: rgb(255, 0, 0); fill-opacity: 1;"/></g><g/></g><g/><g/><g/></svg>
        <svg xmlns="http://www.w3.org/2000/svg" xmlns:xlink="http://www.w3.org/1999/xlink" width="700" height="119.5" style="width:700px;height:119.5px;font-family:Asana-Math, Asana;background:#FFF;"><g><g><g><text x="157" y="47.765625" style="white-space:pre;stroke:none;fill:rgb(0,0,0);fill-opacity:1;font-size:15px;font-family:Arial, Helvetica, sans-serif;font-weight:400;font-style:normal;dominant-baseline:text-before-edge;text-decoration:none solid rgb(0, 0, 0);">–</text></g></g></g><g><g><g><text x="157" y="78.765625" style="white-space:pre;stroke:none;fill:rgb(0,0,0);fill-opacity:1;font-size:15px;font-family:Arial, Helvetica, sans-serif;font-weight:400;font-style:normal;dominant-baseline:text-before-edge;text-decoration:none solid rgb(0, 0, 0);">+</text></g></g></g><g><g><g><text x="71.1953125" y="29.09375" style="white-space:pre;stroke:none;fill:rgb(0,0,0);fill-opacity:1;font-size:15px;font-family:Arial, Helvetica, sans-serif;font-weight:400;font-style:normal;dominant-baseline:text-before-edge;text-decoration:none solid rgb(0, 0, 0);">R4</text></g></g></g><g><g><g><text x="103.09375" y="28.59375" style="white-space:pre;stroke:none;fill:rgb(0,0,0);fill-opacity:1;font-size:15px;font-family:Arial, Helvetica, sans-serif;font-weight:400;font-style:normal;dominant-baseline:text-before-edge;text-decoration:none solid rgb(0, 0, 0);">C3</text></g></g></g><g><g><g><text x="176.796875" y="63.09375" style="white-space:pre;stroke:none;fill:rgb(0,0,0);fill-opacity:1;font-size:15px;font-family:Arial, Helvetica, sans-serif;font-weight:400;font-style:normal;dominant-baseline:text-before-edge;text-decoration:none solid rgb(0, 0, 0);">U1</text></g></g></g><g><g><g><text x="129.8984375" y="61.3984375" style="white-space:pre;stroke:none;fill:rgb(255,0,0);fill-opacity:1;font-size:15px;font-family:Arial, Helvetica, sans-serif;font-weight:400;font-style:normal;dominant-baseline:text-before-edge;text-decoration:none solid rgb(255, 0, 0);">V-</text></g></g></g><g><g><g><text x="88.296875" y="81.59375" style="white-space:pre;stroke:none;fill:rgb(255,0,0);fill-opacity:1;font-size:15px;font-family:Arial, Helvetica, sans-serif;font-weight:400;font-style:normal;dominant-baseline:text-before-edge;text-decoration:none solid rgb(255, 0, 0);">i</text></g><g><text x="91.6328125" y="88.09375" style="white-space:pre;stroke:none;fill:rgb(255,0,0);fill-opacity:1;font-size:7.5px;font-family:Arial, Helvetica, sans-serif;font-weight:400;font-style:normal;dominant-baseline:text-before-edge;text-decoration:none solid rgb(255, 0, 0);">C3</text></g></g></g><g><g><g><text x="93.6953125" y="62.09375" style="white-space:pre;stroke:none;fill:rgb(255,0,0);fill-opacity:1;font-size:12px;font-family:Arial, Helvetica, sans-serif;font-weight:400;font-style:normal;dominant-baseline:text-before-edge;text-decoration:none solid rgb(255, 0, 0);">V4</text></g></g></g></svg>
</svg>
