<svg xmlns="http://www.w3.org/2000/svg" xmlns:xlink="http://www.w3.org/1999/xlink" x="0" y="0" width="702" height="314.5" style="
        width:702px;
        height:314.5px;
        background: #FFF;
        fill: none;
">
        <svg xmlns="http://www.w3.org/2000/svg"/>
        
        <svg xmlns="http://www.w3.org/2000/svg" class="role-diagram-draw-area" style="overflow: visible;"><g class="shapes-region" style="stroke: black; fill: none;"><g class="composite-shape"><path class="real" d=" M389.5,214.67 L310.17,244.5 L310.17,184.83 Z" style="stroke-width: 1; stroke: rgb(0, 0, 0); fill: none; fill-opacity: 1;"/></g><g class="composite-shape"><g class="real" style="stroke-width: 1; stroke: rgb(0, 0, 0); fill: none; fill-opacity: 1;"><path d=" M267.83,229.67 L267.83,237.62 L273.33,239.38 L262.33,242.92 L273.33,246.45 L262.33,249.98 L273.33,253.52 L262.33,257.05 L273.33,260.58 L262.33,264.12 L267.83,265.88 L267.83,273.83" style="fill: none;"/></g></g><g class="composite-shape"><g class="real" style="stroke-width: 1; stroke: rgb(0, 0, 0); fill: none; fill-opacity: 1;"><path d=" M214.25,199.75 L222.2,199.75 L223.97,194.25 L227.5,205.25 L231.03,194.25 L234.57,205.25 L238.1,194.25 L241.63,205.25 L245.17,194.25 L248.7,205.25 L250.47,199.75 L258.42,199.75" style="fill: none;"/></g></g><g class="composite-shape"><g class="real" style="stroke-width: 1; stroke: rgb(0, 0, 0); fill: none; fill-opacity: 1;"><path d=" M258.42,199.75 L264.72,199.75" style="fill: none;"/><path d=" M279.42,199.75 L273.12,199.75" style="fill: none;"/><path d=" M264.72,189.5 L264.72,210" style="fill: none;"/><path d=" M273.12,189.5 L273.12,210" style="fill: none;"/></g></g><g class="arrow-line"><path class="connection real" stroke-dasharray="" d="  M279.42,199.75 L310.5,199.5" style="stroke: rgb(0, 0, 0); stroke-width: 1; fill: none; fill-opacity: 1;"/></g><g class="arrow-line"><path class="connection real" stroke-dasharray="" d="  M267.83,229.67 L309.5,229.67" style="stroke: rgb(0, 0, 0); stroke-width: 1; fill: none; fill-opacity: 1;"/></g><g class="arrow-line"><path class="connection real" stroke-dasharray="" d="  M226.17,229.67 L267.83,229.67" style="stroke: rgb(0, 0, 0); stroke-width: 1; fill: none; fill-opacity: 1;"/></g><g class="grouped-shape"><g class="arrow-line"><path class="connection real" stroke-dasharray="" d="  M177.67,208.6 L200,208.6" style="stroke: rgb(0, 0, 0); stroke-width: 1; fill: none; fill-opacity: 1;"/></g><g class="arrow-line"><path class="connection real" stroke-dasharray="" d="  M182.31,211.63 L195.35,211.63" style="stroke: rgb(0, 0, 0); stroke-width: 1; fill: none; fill-opacity: 1;"/></g><g class="arrow-line"><path class="connection real" stroke-dasharray="" d="  M184.86,215 L192.81,215" style="stroke: rgb(0, 0, 0); stroke-width: 1; fill: none; fill-opacity: 1;"/></g><g class="arrow-line"><path class="connection real" stroke-dasharray="" d="  M188.83,208.6 L188.83,199.5" style="stroke: rgb(0, 0, 0); stroke-width: 1; fill: none; fill-opacity: 1;"/></g></g><g class="arrow-line"><path class="connection real" stroke-dasharray="" d="  M188.83,199.75 L214.25,199.75" style="stroke: rgb(0, 0, 0); stroke-width: 1; fill: none; fill-opacity: 1;"/></g><g class="composite-shape"><g class="real" style="stroke-width: 1; stroke: rgb(0, 0, 0); fill: none; fill-opacity: 1;"><path d=" M205.17,229.67 L211.47,229.67" style="fill: none;"/><path d=" M226.17,229.67 L219.87,229.67" style="fill: none;"/><path d=" M211.47,219.42 L211.47,239.92" style="fill: none;"/><path d=" M219.87,219.42 L219.87,239.92" style="fill: none;"/></g></g><g class="arrow-line"><path class="connection real" stroke-dasharray="" d="  M163.5,229.67 L205.17,229.67" style="stroke: rgb(0, 0, 0); stroke-width: 1; fill: none; fill-opacity: 1;"/></g><g class="arrow-line"><path class="connection real" stroke-dasharray="" d="  M389.5,214.67 L436.83,215" style="stroke: rgb(0, 0, 0); stroke-width: 1; fill: none; fill-opacity: 1;"/></g><g class="composite-shape"><g class="real" style="stroke-width: 1; stroke: rgb(0, 0, 0); fill: none; fill-opacity: 1;"><path d=" M436.83,215 L436.83,222.95 L442.33,224.72 L431.33,228.25 L442.33,231.78 L431.33,235.32 L442.33,238.85 L431.33,242.38 L442.33,245.92 L431.33,249.45 L436.83,251.22 L436.83,259.17" style="fill: none;"/></g></g><g class="grouped-shape"><g class="arrow-line"><path class="connection real" stroke-dasharray="" d="  M425.67,267.6 L448,267.6" style="stroke: rgb(0, 0, 0); stroke-width: 1; fill: none; fill-opacity: 1;"/></g><g class="arrow-line"><path class="connection real" stroke-dasharray="" d="  M430.31,270.63 L443.35,270.63" style="stroke: rgb(0, 0, 0); stroke-width: 1; fill: none; fill-opacity: 1;"/></g><g class="arrow-line"><path class="connection real" stroke-dasharray="" d="  M432.86,274 L440.81,274" style="stroke: rgb(0, 0, 0); stroke-width: 1; fill: none; fill-opacity: 1;"/></g><g class="arrow-line"><path class="connection real" stroke-dasharray="" d="  M436.83,267.6 L436.83,258.5" style="stroke: rgb(0, 0, 0); stroke-width: 1; fill: none; fill-opacity: 1;"/></g></g><g class="arrow-line"><path class="connection real" stroke-dasharray="" d="  M394.5,47.62 L394.5,214.67" style="stroke: rgb(0, 0, 0); stroke-width: 1; fill: none; fill-opacity: 1;"/></g><g class="composite-shape"><path class="real" d=" M394.5,46.4 L396.67,49.5 L392.33,49.5 Z" style="stroke-width: 1; stroke: rgb(0, 0, 0); fill: rgb(0, 0, 0); fill-opacity: 1;"/></g><g class="composite-shape"><g class="real" style="stroke-width: 1; stroke: rgb(0, 0, 0); fill: none; fill-opacity: 1;"><path d=" M371.92,38.75 L379.87,38.75 L381.63,33.25 L385.17,44.25 L388.7,33.25 L392.23,44.25 L395.77,33.25 L399.3,44.25 L402.83,33.25 L406.37,44.25 L408.13,38.75 L416.08,38.75" style="fill: none;"/></g></g><g class="arrow-line"><path class="connection real" stroke-dasharray="" d="  M413.33,33.83 L421.33,43.17" style="stroke: rgb(0, 0, 0); stroke-width: 1; fill: none; fill-opacity: 1;"/></g><g class="arrow-line"><path class="connection real" stroke-dasharray="" d="  M412.67,43.17 L421.67,33.17" style="stroke: rgb(0, 0, 0); stroke-width: 1; fill: none; fill-opacity: 1;"/></g><g class="composite-shape"><g class="real" style="stroke-width: 1; stroke: rgb(0, 0, 0); fill: none; fill-opacity: 1;"><path d=" M327.08,155.75 L333.38,155.75" style="fill: none;"/><path d=" M348.08,155.75 L341.78,155.75" style="fill: none;"/><path d=" M333.38,145.5 L333.38,166" style="fill: none;"/><path d=" M341.78,145.5 L341.78,166" style="fill: none;"/></g></g><g class="arrow-line"><path class="connection real" stroke-dasharray="" d="  M291.83,38.75 L291.83,200" style="stroke: rgb(0, 0, 0); stroke-width: 1; fill: none; fill-opacity: 1;"/></g><g class="arrow-line"><path class="connection real" stroke-dasharray="" d="  M291.72,155.75 L327.08,155.75" style="stroke: rgb(0, 0, 0); stroke-width: 1; fill: none; fill-opacity: 1;"/></g><g class="arrow-line"><path class="connection real" stroke-dasharray="" d="  M348.08,155.75 L394.67,155.75" style="stroke: rgb(0, 0, 0); stroke-width: 1; fill: none; fill-opacity: 1;"/></g><g class="composite-shape"><g class="real" style="stroke-width: 1; stroke: rgb(0, 0, 0); fill: none; fill-opacity: 1;"><path d=" M331.4,108.83 L343.93,116.33 L331.4,123.83 L331.4,108.83 Z"/><path d=" M322,116.33 L331.4,116.33" style="fill: none;"/><path d=" M343.93,108.83 L343.93,123.83" style="fill: none;"/><path d=" M343.93,116.33 L353.33,116.33" style="fill: none;"/></g></g><g class="composite-shape"><g class="real" style="stroke-width: 1; stroke: rgb(0, 0, 0); fill: none; fill-opacity: 1;"><path d=" M343.93,98.17 L331.4,90.67 L343.93,83.17 L343.93,98.17 Z"/><path d=" M353.33,90.67 L343.93,90.67" style="fill: none;"/><path d=" M331.4,98.17 L331.4,83.17" style="fill: none;"/><path d=" M331.4,90.67 L322,90.67" style="fill: none;"/></g></g><g class="arrow-line"><path class="connection real" stroke-dasharray="" d="  M291.33,116.33 L322,116.33" style="stroke: rgb(0, 0, 0); stroke-width: 1; fill: none; fill-opacity: 1;"/></g><g class="arrow-line"><path class="connection real" stroke-dasharray="" d="  M292,90.67 L322,90.67" style="stroke: rgb(0, 0, 0); stroke-width: 1; fill: none; fill-opacity: 1;"/></g><g class="arrow-line"><path class="connection real" stroke-dasharray="" d="  M353.33,116.33 L394.67,116.33" style="stroke: rgb(0, 0, 0); stroke-width: 1; fill: none; fill-opacity: 1;"/></g><g class="arrow-line"><path class="connection real" stroke-dasharray="" d="  M353.33,90.67 L394.67,90.67" style="stroke: rgb(0, 0, 0); stroke-width: 1; fill: none; fill-opacity: 1;"/></g><g class="composite-shape"><path class="real" d=" M317.67,79.83 L360.33,79.83 L360.33,126.83 L317.67,126.83 Z" style="stroke-width: 1; stroke: rgb(0, 0, 0); fill: none; fill-opacity: 1; stroke-dasharray: 1.125, 3.35;"/></g><g class="composite-shape"><g class="real" style="stroke-width: 1; stroke: rgb(0, 0, 0); fill: none; fill-opacity: 1;"><path d=" M297.75,38.75 L305.7,38.75 L307.47,33.25 L311,44.25 L314.53,33.25 L318.07,44.25 L321.6,33.25 L325.13,44.25 L328.67,33.25 L332.2,44.25 L333.97,38.75 L341.92,38.75" style="fill: none;"/></g></g><g class="arrow-line"><path class="connection real" stroke-dasharray="" d="  M341.92,38.75 L371.92,38.75" style="stroke: rgb(0, 0, 0); stroke-width: 1; fill: none; fill-opacity: 1;"/></g><g class="arrow-line"><path class="connection real" stroke-dasharray="" d="  M291.67,38.75 L297.75,38.75" style="stroke: rgb(0, 0, 0); stroke-width: 1; fill: none; fill-opacity: 1;"/></g><g class="arrow-line"><path class="connection real" stroke-dasharray="" d="  M436.83,215 L484.17,215.33" style="stroke: rgb(0, 0, 0); stroke-width: 1; fill: none; fill-opacity: 1;"/></g><g class="composite-shape"><path class="real" d=" M406.57,214.83 C406.57,213.01 408.04,211.53 409.87,211.53 C411.69,211.53 413.17,213.01 413.17,214.83 C413.17,216.66 411.69,218.13 409.87,218.13 C408.04,218.13 406.57,216.66 406.57,214.83 Z" style="stroke-width: 1; stroke: none; stroke-opacity: 1; fill: rgb(255, 0, 0); fill-opacity: 1;"/></g><g class="composite-shape"><path class="real" d=" M288.36,199.63 C288.36,197.8 289.84,196.33 291.66,196.33 C293.48,196.33 294.96,197.8 294.96,199.63 C294.96,201.45 293.48,202.93 291.66,202.93 C289.84,202.93 288.36,201.45 288.36,199.63 Z" style="stroke-width: 1; stroke: none; stroke-opacity: 1; fill: rgb(255, 0, 0); fill-opacity: 1;"/></g><g class="composite-shape"><path class="real" d=" M288.67,229.67 C288.67,227.84 290.14,226.37 291.97,226.37 C293.79,226.37 295.27,227.84 295.27,229.67 C295.27,231.49 293.79,232.97 291.97,232.97 C290.14,232.97 288.67,231.49 288.67,229.67 Z" style="stroke-width: 1; stroke: none; stroke-opacity: 1; fill: rgb(255, 0, 0); fill-opacity: 1;"/></g><g class="composite-shape"><path class="real" d=" M433.53,259.17 C433.53,257.34 435.01,255.87 436.83,255.87 C438.66,255.87 440.13,257.34 440.13,259.17 C440.13,260.99 438.66,262.47 436.83,262.47 C435.01,262.47 433.53,260.99 433.53,259.17 Z" style="stroke-width: 1; stroke: none; stroke-opacity: 1; fill: rgb(255, 0, 0); fill-opacity: 1;"/></g><g class="composite-shape"><g class="real" style="stroke-width: 1; stroke: rgb(0, 0, 0); fill: none; fill-opacity: 1;"><path d=" M130.17,143.5 L138.12,143.5 L139.88,138 L143.42,149 L146.95,138 L150.48,149 L154.02,138 L157.55,149 L161.08,138 L164.62,149 L166.38,143.5 L174.33,143.5" style="fill: none;"/></g></g><g class="grouped-shape"><g class="arrow-line"><path class="connection real" stroke-dasharray="" d="  M177.27,152.2 L199.6,152.2" style="stroke: rgb(0, 0, 0); stroke-width: 1; fill: none; fill-opacity: 1;"/></g><g class="arrow-line"><path class="connection real" stroke-dasharray="" d="  M181.91,155.23 L194.95,155.23" style="stroke: rgb(0, 0, 0); stroke-width: 1; fill: none; fill-opacity: 1;"/></g><g class="arrow-line"><path class="connection real" stroke-dasharray="" d="  M184.46,158.6 L192.41,158.6" style="stroke: rgb(0, 0, 0); stroke-width: 1; fill: none; fill-opacity: 1;"/></g><g class="arrow-line"><path class="connection real" stroke-dasharray="" d="  M188.43,152.2 L188.43,143.1" style="stroke: rgb(0, 0, 0); stroke-width: 1; fill: none; fill-opacity: 1;"/></g></g><g class="composite-shape"><g class="real" style="stroke-width: 1; stroke: rgb(0, 0, 0); fill: none; fill-opacity: 1;"><path d=" M188.82,89.98 L188.82,97.93 L194.32,99.7 L183.32,103.23 L194.32,106.77 L183.32,110.3 L194.32,113.83 L183.32,117.37 L194.32,120.9 L183.32,124.43 L188.82,126.2 L188.82,134.15" style="fill: none;"/></g></g><g class="composite-shape"><path class="real" d=" M125.2,80.8 L210.6,80.8 L210.6,164.7 L125.2,164.7 Z" style="stroke-width: 1; stroke: rgb(0, 0, 0); fill: none; fill-opacity: 1; stroke-dasharray: 1.125, 3.35;"/></g><g class="arrow-line"><path class="connection real" stroke-dasharray="" d="  M174.33,143.5 L188.43,143.5" style="stroke: rgb(0, 0, 0); stroke-width: 1; fill: none; fill-opacity: 1;"/></g><g class="arrow-line"><path class="connection real" stroke-dasharray="" d="  M188.82,134.15 L188.43,143.1" style="stroke: rgb(0, 0, 0); stroke-width: 1; fill: none; fill-opacity: 1;"/></g><g class="composite-shape"><path class="real" d=" M185.13,143.1 C185.13,141.28 186.61,139.8 188.43,139.8 C190.26,139.8 191.73,141.28 191.73,143.1 C191.73,144.92 190.26,146.4 188.43,146.4 C186.61,146.4 185.13,144.92 185.13,143.1 Z" style="stroke-width: 1; stroke: none; stroke-opacity: 1; fill: rgb(255, 0, 0); fill-opacity: 1;"/></g><g/></g><g/><g/><g/></svg>
        <svg xmlns="http://www.w3.org/2000/svg" xmlns:xlink="http://www.w3.org/1999/xlink" width="700" height="312.5" style="width:700px;height:312.5px;font-family:Asana-Math, Asana;background:#FFF;"><g><g><g><text x="146.328125" y="221.5" style="white-space:pre;stroke:none;fill:rgb(0,0,0);fill-opacity:1;font-size:15px;font-family:Arial, Helvetica, sans-serif;font-weight:400;font-style:normal;dominant-baseline:text-before-edge;text-decoration:none solid rgb(0, 0, 0);">IN</text></g></g></g><g><g><g><text x="246" y="278.5" style="white-space:pre;stroke:none;fill:rgb(0,0,0);fill-opacity:1;font-size:15px;font-family:Arial, Helvetica, sans-serif;font-weight:400;font-style:normal;dominant-baseline:text-before-edge;text-decoration:none solid rgb(0, 0, 0);">+4.5 V</text></g></g></g><g><g><g><text x="313" y="190.1640625" style="white-space:pre;stroke:none;fill:rgb(0,0,0);fill-opacity:1;font-size:15px;font-family:Arial, Helvetica, sans-serif;font-weight:400;font-style:normal;dominant-baseline:text-before-edge;text-decoration:none solid rgb(0, 0, 0);">–</text></g></g></g><g><g><g><text x="313" y="221.1640625" style="white-space:pre;stroke:none;fill:rgb(0,0,0);fill-opacity:1;font-size:15px;font-family:Arial, Helvetica, sans-serif;font-weight:400;font-style:normal;dominant-baseline:text-before-edge;text-decoration:none solid rgb(0, 0, 0);">+</text></g></g></g><g><g><g><text x="205.1953125" y="243.09375" style="white-space:pre;stroke:none;fill:rgb(0,0,0);fill-opacity:1;font-size:15px;font-family:Arial, Helvetica, sans-serif;font-weight:400;font-style:normal;dominant-baseline:text-before-edge;text-decoration:none solid rgb(0, 0, 0);">C2</text></g></g></g><g><g><g><text x="279.1953125" y="245.5" style="white-space:pre;stroke:none;fill:rgb(0,0,0);fill-opacity:1;font-size:15px;font-family:Arial, Helvetica, sans-serif;font-weight:400;font-style:normal;dominant-baseline:text-before-edge;text-decoration:none solid rgb(0, 0, 0);">R5</text></g></g></g><g><g><g><text x="227.1953125" y="171.5" style="white-space:pre;stroke:none;fill:rgb(0,0,0);fill-opacity:1;font-size:15px;font-family:Arial, Helvetica, sans-serif;font-weight:400;font-style:normal;dominant-baseline:text-before-edge;text-decoration:none solid rgb(0, 0, 0);">R4</text></g></g></g><g><g><g><text x="259.59375" y="171.5" style="white-space:pre;stroke:none;fill:rgb(0,0,0);fill-opacity:1;font-size:15px;font-family:Arial, Helvetica, sans-serif;font-weight:400;font-style:normal;dominant-baseline:text-before-edge;text-decoration:none solid rgb(0, 0, 0);">C3</text></g></g></g><g><g><g><text x="328" y="167.09375" style="white-space:pre;stroke:none;fill:rgb(0,0,0);fill-opacity:1;font-size:15px;font-family:Arial, Helvetica, sans-serif;font-weight:400;font-style:normal;dominant-baseline:text-before-edge;text-decoration:none solid rgb(0, 0, 0);">C4</text></g></g></g><g><g><g><text x="366.796875" y="94.8984375" style="white-space:pre;stroke:none;fill:rgb(0,0,0);fill-opacity:1;font-size:15px;font-family:Arial, Helvetica, sans-serif;font-weight:400;font-style:normal;dominant-baseline:text-before-edge;text-decoration:none solid rgb(0, 0, 0);">DP</text></g></g></g><g><g><g><text x="448.796875" y="227.5" style="white-space:pre;stroke:none;fill:rgb(0,0,0);fill-opacity:1;font-size:15px;font-family:Arial, Helvetica, sans-serif;font-weight:400;font-style:normal;dominant-baseline:text-before-edge;text-decoration:none solid rgb(0, 0, 0);">RL</text></g></g></g><g><g><g><text x="312.3984375" y="12.6953125" style="white-space:pre;stroke:none;fill:rgb(0,0,0);fill-opacity:1;font-size:15px;font-family:Arial, Helvetica, sans-serif;font-weight:400;font-style:normal;dominant-baseline:text-before-edge;text-decoration:none solid rgb(0, 0, 0);">R6</text></g></g></g><g><g><g><text x="332.796875" y="205.5" style="white-space:pre;stroke:none;fill:rgb(0,0,0);fill-opacity:1;font-size:15px;font-family:Arial, Helvetica, sans-serif;font-weight:400;font-style:normal;dominant-baseline:text-before-edge;text-decoration:none solid rgb(0, 0, 0);">U1</text></g></g></g><g><g><g><text x="387.59375" y="14.6953125" style="white-space:pre;stroke:none;fill:rgb(0,0,0);fill-opacity:1;font-size:15px;font-family:Arial, Helvetica, sans-serif;font-weight:400;font-style:normal;dominant-baseline:text-before-edge;text-decoration:none solid rgb(0, 0, 0);">P1</text></g></g></g><g><g><g><text x="484.828125" y="207" style="white-space:pre;stroke:none;fill:rgb(0,0,0);fill-opacity:1;font-size:15px;font-family:Arial, Helvetica, sans-serif;font-weight:400;font-style:normal;dominant-baseline:text-before-edge;text-decoration:none solid rgb(0, 0, 0);">OUT</text></g></g></g><g><g><g><text x="406" y="192.6953125" style="white-space:pre;stroke:none;fill:rgb(255,0,0);fill-opacity:1;font-size:15px;font-family:Arial, Helvetica, sans-serif;font-weight:400;font-style:normal;dominant-baseline:text-before-edge;text-decoration:none solid rgb(255, 0, 0);">4</text></g></g></g><g><g><g><text x="296.15625" y="179.0234375" style="white-space:pre;stroke:none;fill:rgb(255,0,0);fill-opacity:1;font-size:15px;font-family:Arial, Helvetica, sans-serif;font-weight:400;font-style:normal;dominant-baseline:text-before-edge;text-decoration:none solid rgb(255, 0, 0);">3</text></g></g></g><g><g><g><text x="297.0625" y="230.265625" style="white-space:pre;stroke:none;fill:rgb(255,0,0);fill-opacity:1;font-size:15px;font-family:Arial, Helvetica, sans-serif;font-weight:400;font-style:normal;dominant-baseline:text-before-edge;text-decoration:none solid rgb(255, 0, 0);">2</text></g></g></g><g><g><g><text x="443.0625" y="250.6640625" style="white-space:pre;stroke:none;fill:rgb(255,0,0);fill-opacity:1;font-size:15px;font-family:Arial, Helvetica, sans-serif;font-weight:400;font-style:normal;dominant-baseline:text-before-edge;text-decoration:none solid rgb(255, 0, 0);">1</text></g></g></g><g><g><g><text x="193.859375" y="133.859375" style="white-space:pre;stroke:none;fill:rgb(255,0,0);fill-opacity:1;font-size:15px;font-family:Arial, Helvetica, sans-serif;font-weight:400;font-style:normal;dominant-baseline:text-before-edge;text-decoration:none solid rgb(255, 0, 0);">1</text></g></g></g><g><g><g><text x="141.9609375" y="120.09375" style="white-space:pre;stroke:none;fill:rgb(0,0,0);fill-opacity:1;font-size:15px;font-family:Arial, Helvetica, sans-serif;font-weight:400;font-style:normal;dominant-baseline:text-before-edge;text-decoration:none solid rgb(0, 0, 0);">R4</text></g></g></g><g><g><g><text x="161.3125" y="101.09375" style="white-space:pre;stroke:none;fill:rgb(0,0,0);fill-opacity:1;font-size:15px;font-family:Arial, Helvetica, sans-serif;font-weight:400;font-style:normal;dominant-baseline:text-before-edge;text-decoration:none solid rgb(0, 0, 0);">RL</text></g></g></g></svg>
</svg>
