<svg xmlns="http://www.w3.org/2000/svg" xmlns:xlink="http://www.w3.org/1999/xlink" x="0" y="0" width="702" height="360.5" style="
        width:702px;
        height:360.5px;
        background: #FFF;
        fill: none;
">
        <svg xmlns="http://www.w3.org/2000/svg"/>
        
        <svg xmlns="http://www.w3.org/2000/svg" class="role-diagram-draw-area" style="overflow: visible;"><g class="shapes-region" style="stroke: black; fill: none;"><g class="composite-shape"><path class="real" d=" M388,245.67 L308.67,275.5 L308.67,215.83 Z" style="stroke-width: 1; stroke: rgb(0, 0, 0); fill: none; fill-opacity: 1;"/></g><g class="composite-shape"><g class="real" style="stroke-width: 1; stroke: rgb(0, 0, 0); fill: none; fill-opacity: 1;"><path d=" M266.33,260.67 L266.33,268.62 L271.83,270.38 L260.83,273.92 L271.83,277.45 L260.83,280.98 L271.83,284.52 L260.83,288.05 L271.83,291.58 L260.83,295.12 L266.33,296.88 L266.33,304.83" style="fill: none;"/></g></g><g class="composite-shape"><g class="real" style="stroke-width: 1; stroke: rgb(0, 0, 0); fill: none; fill-opacity: 1;"><path d=" M212.75,230.75 L220.7,230.75 L222.47,225.25 L226,236.25 L229.53,225.25 L233.07,236.25 L236.6,225.25 L240.13,236.25 L243.67,225.25 L247.2,236.25 L248.97,230.75 L256.92,230.75" style="fill: none;"/></g></g><g class="composite-shape"><g class="real" style="stroke-width: 1; stroke: rgb(0, 0, 0); fill: none; fill-opacity: 1;"><path d=" M256.92,230.75 L263.22,230.75" style="fill: none;"/><path d=" M277.92,230.75 L271.62,230.75" style="fill: none;"/><path d=" M263.22,220.5 L263.22,241" style="fill: none;"/><path d=" M271.62,220.5 L271.62,241" style="fill: none;"/></g></g><g class="arrow-line"><path class="connection real" stroke-dasharray="" d="  M277.92,230.75 L309,230.5" style="stroke: rgb(0, 0, 0); stroke-width: 1; fill: none; fill-opacity: 1;"/></g><g class="arrow-line"><path class="connection real" stroke-dasharray="" d="  M266.33,260.67 L308,260.67" style="stroke: rgb(0, 0, 0); stroke-width: 1; fill: none; fill-opacity: 1;"/></g><g class="arrow-line"><path class="connection real" stroke-dasharray="" d="  M224.67,260.67 L266.33,260.67" style="stroke: rgb(0, 0, 0); stroke-width: 1; fill: none; fill-opacity: 1;"/></g><g class="grouped-shape"><g class="arrow-line"><path class="connection real" stroke-dasharray="" d="  M176.17,239.6 L198.5,239.6" style="stroke: rgb(0, 0, 0); stroke-width: 1; fill: none; fill-opacity: 1;"/></g><g class="arrow-line"><path class="connection real" stroke-dasharray="" d="  M180.81,242.63 L193.85,242.63" style="stroke: rgb(0, 0, 0); stroke-width: 1; fill: none; fill-opacity: 1;"/></g><g class="arrow-line"><path class="connection real" stroke-dasharray="" d="  M183.36,246 L191.31,246" style="stroke: rgb(0, 0, 0); stroke-width: 1; fill: none; fill-opacity: 1;"/></g><g class="arrow-line"><path class="connection real" stroke-dasharray="" d="  M187.33,239.6 L187.33,230.5" style="stroke: rgb(0, 0, 0); stroke-width: 1; fill: none; fill-opacity: 1;"/></g></g><g class="arrow-line"><path class="connection real" stroke-dasharray="" d="  M187.33,230.75 L212.75,230.75" style="stroke: rgb(0, 0, 0); stroke-width: 1; fill: none; fill-opacity: 1;"/></g><g class="composite-shape"><g class="real" style="stroke-width: 1; stroke: rgb(0, 0, 0); fill: none; fill-opacity: 1;"><path d=" M203.67,260.67 L209.97,260.67" style="fill: none;"/><path d=" M224.67,260.67 L218.37,260.67" style="fill: none;"/><path d=" M209.97,250.42 L209.97,270.92" style="fill: none;"/><path d=" M218.37,250.42 L218.37,270.92" style="fill: none;"/></g></g><g class="arrow-line"><path class="connection real" stroke-dasharray="" d="  M162,260.67 L203.67,260.67" style="stroke: rgb(0, 0, 0); stroke-width: 1; fill: none; fill-opacity: 1;"/></g><g class="arrow-line"><path class="connection real" stroke-dasharray="" d="  M388,245.67 L435.33,246" style="stroke: rgb(0, 0, 0); stroke-width: 1; fill: none; fill-opacity: 1;"/></g><g class="composite-shape"><g class="real" style="stroke-width: 1; stroke: rgb(0, 0, 0); fill: none; fill-opacity: 1;"><path d=" M435.33,246 L435.33,253.95 L440.83,255.72 L429.83,259.25 L440.83,262.78 L429.83,266.32 L440.83,269.85 L429.83,273.38 L440.83,276.92 L429.83,280.45 L435.33,282.22 L435.33,290.17" style="fill: none;"/></g></g><g class="grouped-shape"><g class="arrow-line"><path class="connection real" stroke-dasharray="" d="  M424.17,298.6 L446.5,298.6" style="stroke: rgb(0, 0, 0); stroke-width: 1; fill: none; fill-opacity: 1;"/></g><g class="arrow-line"><path class="connection real" stroke-dasharray="" d="  M428.81,301.63 L441.85,301.63" style="stroke: rgb(0, 0, 0); stroke-width: 1; fill: none; fill-opacity: 1;"/></g><g class="arrow-line"><path class="connection real" stroke-dasharray="" d="  M431.36,305 L439.31,305" style="stroke: rgb(0, 0, 0); stroke-width: 1; fill: none; fill-opacity: 1;"/></g><g class="arrow-line"><path class="connection real" stroke-dasharray="" d="  M435.33,298.6 L435.33,289.5" style="stroke: rgb(0, 0, 0); stroke-width: 1; fill: none; fill-opacity: 1;"/></g></g><g class="arrow-line"><path class="connection real" stroke-dasharray="" d="  M393,78.62 L393,245.67" style="stroke: rgb(0, 0, 0); stroke-width: 1; fill: none; fill-opacity: 1;"/></g><g class="composite-shape"><path class="real" d=" M393,77.4 L395.17,80.5 L390.83,80.5 Z" style="stroke-width: 1; stroke: rgb(0, 0, 0); fill: rgb(0, 0, 0); fill-opacity: 1;"/></g><g class="composite-shape"><g class="real" style="stroke-width: 1; stroke: rgb(0, 0, 0); fill: none; fill-opacity: 1;"><path d=" M370.42,69.75 L378.37,69.75 L380.13,64.25 L383.67,75.25 L387.2,64.25 L390.73,75.25 L394.27,64.25 L397.8,75.25 L401.33,64.25 L404.87,75.25 L406.63,69.75 L414.58,69.75" style="fill: none;"/></g></g><g class="arrow-line"><path class="connection real" stroke-dasharray="" d="  M411.83,64.83 L419.83,74.17" style="stroke: rgb(0, 0, 0); stroke-width: 1; fill: none; fill-opacity: 1;"/></g><g class="arrow-line"><path class="connection real" stroke-dasharray="" d="  M411.17,74.17 L420.17,64.17" style="stroke: rgb(0, 0, 0); stroke-width: 1; fill: none; fill-opacity: 1;"/></g><g class="composite-shape"><g class="real" style="stroke-width: 1; stroke: rgb(0, 0, 0); fill: none; fill-opacity: 1;"><path d=" M325.58,186.75 L331.88,186.75" style="fill: none;"/><path d=" M346.58,186.75 L340.28,186.75" style="fill: none;"/><path d=" M331.88,176.5 L331.88,197" style="fill: none;"/><path d=" M340.28,176.5 L340.28,197" style="fill: none;"/></g></g><g class="arrow-line"><path class="connection real" stroke-dasharray="" d="  M290.33,69.75 L290.33,231" style="stroke: rgb(0, 0, 0); stroke-width: 1; fill: none; fill-opacity: 1;"/></g><g class="arrow-line"><path class="connection real" stroke-dasharray="" d="  M290.22,186.75 L325.58,186.75" style="stroke: rgb(0, 0, 0); stroke-width: 1; fill: none; fill-opacity: 1;"/></g><g class="arrow-line"><path class="connection real" stroke-dasharray="" d="  M346.58,186.75 L393.17,186.75" style="stroke: rgb(0, 0, 0); stroke-width: 1; fill: none; fill-opacity: 1;"/></g><g class="composite-shape"><g class="real" style="stroke-width: 1; stroke: rgb(0, 0, 0); fill: none; fill-opacity: 1;"><path d=" M329.9,139.83 L342.43,147.33 L329.9,154.83 L329.9,139.83 Z"/><path d=" M320.5,147.33 L329.9,147.33" style="fill: none;"/><path d=" M342.43,139.83 L342.43,154.83" style="fill: none;"/><path d=" M342.43,147.33 L351.83,147.33" style="fill: none;"/></g></g><g class="composite-shape"><g class="real" style="stroke-width: 1; stroke: rgb(0, 0, 0); fill: none; fill-opacity: 1;"><path d=" M342.43,129.17 L329.9,121.67 L342.43,114.17 L342.43,129.17 Z"/><path d=" M351.83,121.67 L342.43,121.67" style="fill: none;"/><path d=" M329.9,129.17 L329.9,114.17" style="fill: none;"/><path d=" M329.9,121.67 L320.5,121.67" style="fill: none;"/></g></g><g class="arrow-line"><path class="connection real" stroke-dasharray="" d="  M289.83,147.33 L320.5,147.33" style="stroke: rgb(0, 0, 0); stroke-width: 1; fill: none; fill-opacity: 1;"/></g><g class="arrow-line"><path class="connection real" stroke-dasharray="" d="  M290.5,121.67 L320.5,121.67" style="stroke: rgb(0, 0, 0); stroke-width: 1; fill: none; fill-opacity: 1;"/></g><g class="arrow-line"><path class="connection real" stroke-dasharray="" d="  M351.83,147.33 L393.17,147.33" style="stroke: rgb(0, 0, 0); stroke-width: 1; fill: none; fill-opacity: 1;"/></g><g class="arrow-line"><path class="connection real" stroke-dasharray="" d="  M351.83,121.67 L393.17,121.67" style="stroke: rgb(0, 0, 0); stroke-width: 1; fill: none; fill-opacity: 1;"/></g><g class="composite-shape"><path class="real" d=" M316.17,110.83 L358.83,110.83 L358.83,157.83 L316.17,157.83 Z" style="stroke-width: 1; stroke: rgb(0, 0, 0); fill: none; fill-opacity: 1; stroke-dasharray: 1.125, 3.35;"/></g><g class="composite-shape"><g class="real" style="stroke-width: 1; stroke: rgb(0, 0, 0); fill: none; fill-opacity: 1;"><path d=" M296.25,69.75 L304.2,69.75 L305.97,64.25 L309.5,75.25 L313.03,64.25 L316.57,75.25 L320.1,64.25 L323.63,75.25 L327.17,64.25 L330.7,75.25 L332.47,69.75 L340.42,69.75" style="fill: none;"/></g></g><g class="arrow-line"><path class="connection real" stroke-dasharray="" d="  M340.42,69.75 L370.42,69.75" style="stroke: rgb(0, 0, 0); stroke-width: 1; fill: none; fill-opacity: 1;"/></g><g class="arrow-line"><path class="connection real" stroke-dasharray="" d="  M290.17,69.75 L296.25,69.75" style="stroke: rgb(0, 0, 0); stroke-width: 1; fill: none; fill-opacity: 1;"/></g><g class="arrow-line"><path class="connection real" stroke-dasharray="" d="  M435.33,246 L482.67,246.33" style="stroke: rgb(0, 0, 0); stroke-width: 1; fill: none; fill-opacity: 1;"/></g><g class="composite-shape"><path class="real" d=" M141.1,262.59 C141.1,254.81 147.41,248.5 155.19,248.5 L286.61,248.5 C294.39,248.5 300.7,254.81 300.7,262.59 L300.7,314.91 C300.7,322.69 294.39,329 286.61,329 L155.19,329 C147.41,329 141.1,322.69 141.1,314.91 Z" style="stroke-width: 1; stroke: rgb(255, 0, 0); stroke-opacity: 1; fill: none; fill-opacity: 1;"/></g><g class="composite-shape"><path class="real" d=" M285.5,44.09 C285.5,30.51 296.51,19.5 310.09,19.5 L401.41,19.5 C414.99,19.5 426,30.51 426,44.09 L426,188.41 C426,201.99 414.99,213 401.41,213 L310.09,213 C296.51,213 285.5,201.99 285.5,188.41 Z" style="stroke-width: 1; stroke: rgb(74, 144, 226); stroke-opacity: 1; fill: none; fill-opacity: 1;"/></g><g class="composite-shape"><path class="real" d=" M389,237.78 C389,228.79 396.29,221.5 405.28,221.5 L504.73,221.5 C513.71,221.5 521,228.79 521,237.78 L521,298.23 C521,307.21 513.71,314.5 504.73,314.5 L405.28,314.5 C396.29,314.5 389,307.21 389,298.23 Z" style="stroke-width: 1; stroke: rgb(65, 117, 5); stroke-opacity: 1; fill: none; fill-opacity: 1;"/></g><g class="composite-shape"><path class="real" d=" M169,190.58 C169,183.91 174.41,178.5 181.08,178.5 L270.86,178.5 C277.53,178.5 282.94,183.91 282.94,190.58 L282.94,235.43 C282.94,242.09 277.53,247.5 270.86,247.5 L181.08,247.5 C174.41,247.5 169,242.09 169,235.43 Z" style="stroke-width: 1; stroke: rgb(189, 16, 224); stroke-opacity: 1; fill: none; fill-opacity: 1;"/></g><g/></g><g/><g/><g/></svg>
        <svg xmlns="http://www.w3.org/2000/svg" xmlns:xlink="http://www.w3.org/1999/xlink" width="700" height="358.5" style="width:700px;height:358.5px;font-family:Asana-Math, Asana;background:#FFF;"><g><g><g><text x="144.828125" y="252.5" style="white-space:pre;stroke:none;fill:rgb(0,0,0);fill-opacity:1;font-size:15px;font-family:Arial, Helvetica, sans-serif;font-weight:400;font-style:normal;dominant-baseline:text-before-edge;text-decoration:none solid rgb(0, 0, 0);">IN</text></g></g></g><g><g><g><text x="244.5" y="309.5" style="white-space:pre;stroke:none;fill:rgb(0,0,0);fill-opacity:1;font-size:15px;font-family:Arial, Helvetica, sans-serif;font-weight:400;font-style:normal;dominant-baseline:text-before-edge;text-decoration:none solid rgb(0, 0, 0);">+4.5 V</text></g></g></g><g><g><g><text x="311.5" y="221.1640625" style="white-space:pre;stroke:none;fill:rgb(0,0,0);fill-opacity:1;font-size:15px;font-family:Arial, Helvetica, sans-serif;font-weight:400;font-style:normal;dominant-baseline:text-before-edge;text-decoration:none solid rgb(0, 0, 0);">–</text></g></g></g><g><g><g><text x="311.5" y="252.1640625" style="white-space:pre;stroke:none;fill:rgb(0,0,0);fill-opacity:1;font-size:15px;font-family:Arial, Helvetica, sans-serif;font-weight:400;font-style:normal;dominant-baseline:text-before-edge;text-decoration:none solid rgb(0, 0, 0);">+</text></g></g></g><g><g><g><text x="203.6953125" y="274.09375" style="white-space:pre;stroke:none;fill:rgb(0,0,0);fill-opacity:1;font-size:15px;font-family:Arial, Helvetica, sans-serif;font-weight:400;font-style:normal;dominant-baseline:text-before-edge;text-decoration:none solid rgb(0, 0, 0);">C2</text></g></g></g><g><g><g><text x="277.6953125" y="276.5" style="white-space:pre;stroke:none;fill:rgb(0,0,0);fill-opacity:1;font-size:15px;font-family:Arial, Helvetica, sans-serif;font-weight:400;font-style:normal;dominant-baseline:text-before-edge;text-decoration:none solid rgb(0, 0, 0);">R5</text></g></g></g><g><g><g><text x="225.6953125" y="202.5" style="white-space:pre;stroke:none;fill:rgb(0,0,0);fill-opacity:1;font-size:15px;font-family:Arial, Helvetica, sans-serif;font-weight:400;font-style:normal;dominant-baseline:text-before-edge;text-decoration:none solid rgb(0, 0, 0);">R4</text></g></g></g><g><g><g><text x="258.09375" y="202.5" style="white-space:pre;stroke:none;fill:rgb(0,0,0);fill-opacity:1;font-size:15px;font-family:Arial, Helvetica, sans-serif;font-weight:400;font-style:normal;dominant-baseline:text-before-edge;text-decoration:none solid rgb(0, 0, 0);">C3</text></g></g></g><g><g><g><text x="326.5" y="198.09375" style="white-space:pre;stroke:none;fill:rgb(0,0,0);fill-opacity:1;font-size:15px;font-family:Arial, Helvetica, sans-serif;font-weight:400;font-style:normal;dominant-baseline:text-before-edge;text-decoration:none solid rgb(0, 0, 0);">C4</text></g></g></g><g><g><g><text x="365.296875" y="125.8984375" style="white-space:pre;stroke:none;fill:rgb(0,0,0);fill-opacity:1;font-size:15px;font-family:Arial, Helvetica, sans-serif;font-weight:400;font-style:normal;dominant-baseline:text-before-edge;text-decoration:none solid rgb(0, 0, 0);">DP</text></g></g></g><g><g><g><text x="447.296875" y="258.5" style="white-space:pre;stroke:none;fill:rgb(0,0,0);fill-opacity:1;font-size:15px;font-family:Arial, Helvetica, sans-serif;font-weight:400;font-style:normal;dominant-baseline:text-before-edge;text-decoration:none solid rgb(0, 0, 0);">RL</text></g></g></g><g><g><g><text x="310.8984375" y="43.6953125" style="white-space:pre;stroke:none;fill:rgb(0,0,0);fill-opacity:1;font-size:15px;font-family:Arial, Helvetica, sans-serif;font-weight:400;font-style:normal;dominant-baseline:text-before-edge;text-decoration:none solid rgb(0, 0, 0);">R6</text></g></g></g><g><g><g><text x="331.296875" y="236.5" style="white-space:pre;stroke:none;fill:rgb(0,0,0);fill-opacity:1;font-size:15px;font-family:Arial, Helvetica, sans-serif;font-weight:400;font-style:normal;dominant-baseline:text-before-edge;text-decoration:none solid rgb(0, 0, 0);">U1</text></g></g></g><g><g><g><text x="386.09375" y="45.6953125" style="white-space:pre;stroke:none;fill:rgb(0,0,0);fill-opacity:1;font-size:15px;font-family:Arial, Helvetica, sans-serif;font-weight:400;font-style:normal;dominant-baseline:text-before-edge;text-decoration:none solid rgb(0, 0, 0);">P1</text></g></g></g><g><g><g><text x="483.328125" y="238" style="white-space:pre;stroke:none;fill:rgb(0,0,0);fill-opacity:1;font-size:15px;font-family:Arial, Helvetica, sans-serif;font-weight:400;font-style:normal;dominant-baseline:text-before-edge;text-decoration:none solid rgb(0, 0, 0);">OUT</text></g></g></g><g><g><g><text x="161.78515625" y="294.5859375" style="white-space:pre;stroke:none;fill:rgb(255,0,0);fill-opacity:1;font-size:25.95px;font-family:Arial, Helvetica, sans-serif;font-weight:400;font-style:normal;dominant-baseline:text-before-edge;text-decoration:none solid rgb(255, 0, 0);">B</text></g></g></g><g><g><g><text x="343.28515625" y="23.5859375" style="white-space:pre;stroke:none;fill:rgb(74,144,226);fill-opacity:1;font-size:25.95px;font-family:Arial, Helvetica, sans-serif;font-weight:400;font-style:normal;dominant-baseline:text-before-edge;text-decoration:none solid rgb(74, 144, 226);">A</text></g></g></g><g><g><g><text x="483.28515625" y="273.0859375" style="white-space:pre;stroke:none;fill:rgb(65,117,5);fill-opacity:1;font-size:25.95px;font-family:Arial, Helvetica, sans-serif;font-weight:400;font-style:normal;dominant-baseline:text-before-edge;text-decoration:none solid rgb(65, 117, 5);">D</text></g></g></g><g><g><g><text x="190.58203125" y="184.5859375" style="white-space:pre;stroke:none;fill:rgb(189,16,224);fill-opacity:1;font-size:25.95px;font-family:Arial, Helvetica, sans-serif;font-weight:400;font-style:normal;dominant-baseline:text-before-edge;text-decoration:none solid rgb(189, 16, 224);">C</text></g></g></g></svg>
</svg>
